<?xml version="1.0" standalone="no"?>
<!DOCTYPE svg PUBLIC "-//W3C//DTD SVG 20010904//EN"
 "http://www.w3.org/TR/2001/REC-SVG-20010904/DTD/svg10.dtd">
<svg version="1.0" xmlns="http://www.w3.org/2000/svg"
 width="512.000000pt" height="512.000000pt" viewBox="0 0 512.000000 512.000000"
 preserveAspectRatio="xMidYMid meet">

<g transform="translate(0.000000,512.000000) scale(0.100000,-0.100000)"
fill="#000000" stroke="none">
<path d="M3535 5111 c-69 -18 -116 -51 -227 -160 -139 -134 -168 -183 -168
-275 0 -65 19 -116 63 -174 15 -19 23 -41 20 -50 -6 -19 -898 -917 -928 -935
-14 -9 -137 -13 -420 -17 l-400 -5 -50 -25 c-67 -33 -224 -190 -256 -255 -20
-42 -24 -65 -24 -140 0 -144 -7 -134 431 -575 l384 -385 -951 -950 c-523 -523
-964 -968 -980 -989 -41 -55 -39 -98 5 -142 38 -38 78 -44 124 -20 15 8 461
449 992 980 l965 966 385 -384 c441 -438 431 -431 575 -431 121 0 162 21 281
139 145 146 138 115 145 596 3 223 6 407 7 410 1 2 210 213 464 467 346 346
469 463 486 463 13 0 38 -11 56 -25 50 -38 100 -55 163 -55 93 0 141 29 274
166 142 147 164 186 164 299 0 150 28 116 -683 827 -556 556 -634 630 -686
654 -62 28 -157 40 -211 25z m742 -833 c381 -381 623 -630 626 -645 9 -50 -7
-78 -101 -175 -52 -54 -103 -100 -114 -104 -13 -4 -30 1 -47 15 -82 66 -172
85 -262 56 -51 -16 -84 -47 -542 -504 -399 -397 -493 -496 -515 -541 l-27 -55
-5 -403 -5 -403 -86 -84 c-140 -138 -20 -229 -1006 758 -987 986 -896 866
-758 1006 l84 86 403 5 c394 5 404 6 453 28 40 18 145 118 531 504 313 312
489 495 502 522 46 90 37 187 -24 273 -19 26 -34 54 -34 62 0 20 179 201 215
217 65 30 51 43 712 -618z"/>
</g>
</svg>
