<svg width="512" height="512" xmlns="http://www.w3.org/2000/svg" preserveAspectRatio="xMidYMid meet" version="1.0">

 <g>
  <title>Layer 1</title>
  <g id="svg_1" fill="#000000" transform="translate(0.000000,512.000000) scale(0.100000,-0.100000)">
   <path id="svg_2" d="m3535,5111c-69,-18 -116,-51 -227,-160c-139,-134 -168,-183 -168,-275c0,-65 19,-116 63,-174c15,-19 23,-41 20,-50c-6,-19 -898,-917 -928,-935c-14,-9 -137,-13 -420,-17l-400,-5l-50,-25c-67,-33 -224,-190 -256,-255c-20,-42 -24,-65 -24,-140c0,-144 -7,-134 431,-575l384,-385l-951,-950c-523,-523 -964,-968 -980,-989c-41,-55 -39,-98 5,-142c38,-38 78,-44 124,-20c15,8 461,449 992,980l965,966l385,-384c441,-438 431,-431 575,-431c121,0 162,21 281,139c145,146 138,115 145,596c3,223 6,407 7,410c1,2 210,213 464,467c346,346 469,463 486,463c13,0 38,-11 56,-25c50,-38 100,-55 163,-55c93,0 141,29 274,166c142,147 164,186 164,299c0,150 28,116 -683,827c-556,556 -634,630 -686,654c-62,28 -157,40 -211,25zm742,-833c381,-381 623,-630 626,-645c9,-50 -7,-78 -101,-175c-52,-54 -103,-100 -114,-104c-13,-4 -30,1 -47,15c-82,66 -172,85 -262,56c-51,-16 -84,-47 -542,-504c-399,-397 -493,-496 -515,-541l-27,-55l-5,-403l-5,-403l-86,-84c-140,-138 -20,-229 -1006,758c-987,986 -896,866 -758,1006l84,86l403,5c394,5 404,6 453,28c40,18 145,118 531,504c313,312 489,495 502,522c46,90 37,187 -24,273c-19,26 -34,54 -34,62c0,20 179,201 215,217c65,30 51,43 712,-618z"/>
   <rect id="svg_3" stroke-width=" 13px" stroke=" rgb(0, 0, 0)" transform="matrix(0.71025, 0.703949, -0.703949, 0.71025, -0.487361, 7.848452)" height="9.719" width="652.868" y="2.2" x="34.821"/>
  </g>
  <line stroke-width="50" stroke="#0ff" stroke-linecap="undefined" stroke-linejoin="undefined" id="svg_4" y2="502.99997" x2="498.99998" y1="11" x1="12" fill="none"/>
 </g>
</svg>